<svg width="60" height="60" viewBox="0 0 60 60" fill="none" xmlns="http://www.w3.org/2000/svg">
<g id="pencil">
<path id="Vector" d="M12.5 39.6583L10 49.9083L20.25 47.4083L43.25 24.4083L35.5 16.6583L12.5 39.6583ZM13.75 47.4083L12.75 46.1583L13.75 41.1583L18.75 46.1583L13.75 47.4083ZM37.25 20.9083L17 40.9083L15.5 39.4083L35.75 19.4083L37.25 20.9083Z" fill="white"/>
<path id="Vector_2" d="M48.25 11.6583C45.5 8.90832 41.75 10.4083 41.75 10.4083L38 14.1583L45.75 21.9083L49.5 18.1583C49.5 17.9083 51 14.4083 48.25 11.6583ZM43.5 13.9083L42.25 12.6583C43.75 11.1583 45 12.4083 45 12.4083L43.5 13.9083Z" fill="white"/>
</g>
</svg>
